ISO-10303-21;
HEADER;
FILE_DESCRIPTION(('STEP AP242'),
    '1');
FILE_NAME('заглушбек',
    '',
    ('UNSPECIFIED'),
    ('UNSPECIFIED'),
    'C3D Converter',
    'C3D Toolkit',
    '');
FILE_SCHEMA(('AP242_MANAGED_MODEL_BASED_3D_ENGINEERING_MIM_LF { 1 0 10303 442 1 1 4 }'));
ENDSEC;

DATA;
#1=PRODUCT_DEFINITION('','UNSPECIFIED',#32,#35);
#2=SHAPE_DEFINITION_REPRESENTATION(#30,#3);
#3=SHAPE_REPRESENTATION('NONE',(#4),#8);
#4=AXIS2_PLACEMENT_3D('',#5,#6,#7);
#5=CARTESIAN_POINT('',(0.,0.,0.));
#6=DIRECTION('',(0.,0.,1.));
#7=DIRECTION('',(1.,0.,0.));
#8=(GEOMETRIC_REPRESENTATION_CONTEXT(3)GLOBAL_UNCERTAINTY_ASSIGNED_CONTEXT((#10))
GLOBAL_UNIT_ASSIGNED_CONTEXT((#9,#11,#12))REPRESENTATION_CONTEXT('NONE','NONE'));
#9=(LENGTH_UNIT()NAMED_UNIT(*)SI_UNIT(.MILLI.,.METRE.));
#10=UNCERTAINTY_MEASURE_WITH_UNIT(LENGTH_MEASURE(1.E-5),#9,'NONE','NONE');
#11=(NAMED_UNIT(*)PLANE_ANGLE_UNIT()SI_UNIT($,.RADIAN.));
#12=(NAMED_UNIT(*)SI_UNIT($,.STERADIAN.)SOLID_ANGLE_UNIT());
#13=MANIFOLD_SOLID_BREP('',#14);
#14=CLOSED_SHELL('',(#57,#58,#59,#60,#61,#62,#63,#64,#65,#66,#67,#68,#69));
#15=COLOUR_RGB('',0.564705882352941,0.564705882352941,0.564705882352941);
#16=FILL_AREA_STYLE_COLOUR('',#15);
#17=FILL_AREA_STYLE($,(#16));
#18=SURFACE_STYLE_FILL_AREA(#17);
#19=SURFACE_SIDE_STYLE('',(#18));
#20=SURFACE_STYLE_USAGE(.BOTH.,#19);
#21=PRESENTATION_STYLE_ASSIGNMENT((#20));
#22=MECHANICAL_DESIGN_GEOMETRIC_PRESENTATION_REPRESENTATION('NONE',(#23),#8);
#23=STYLED_ITEM('',(#21),#13);
#24=ADVANCED_BREP_SHAPE_REPRESENTATION('NONE',(#13),#8);
#25=SHAPE_REPRESENTATION_RELATIONSHIP('','',#3,#24);
#26=GEOMETRIC_CURVE_SET('',(#70));
#27=GEOMETRIC_CURVE_SET('',(#71));
#28=GEOMETRICALLY_BOUNDED_WIREFRAME_SHAPE_REPRESENTATION('NONE',(#26,#27),#8);
#29=SHAPE_REPRESENTATION_RELATIONSHIP('','',#3,#28);
#30=PRODUCT_DEFINITION_SHAPE('NONE','NONE',#1);
#31=MECHANICAL_CONTEXT('NONE',#36,'mechanical');
#32=PRODUCT_DEFINITION_FORMATION_WITH_SPECIFIED_SOURCE('ANY','UNSPECIFIED',#33,.NOT_KNOWN.);
#33=PRODUCT('','\X2\043704300433043B0443044804310435043A\X0\','NONE',(#31));
#34=PRODUCT_RELATED_PRODUCT_CATEGORY('detail','',(#33));
#35=DESIGN_CONTEXT('detailed design',#36,'design');
#36=APPLICATION_CONTEXT('configuration controlled 3d designs of mechanical parts and assemblies');
#37=APPLICATION_PROTOCOL_DEFINITION('international standard','config_control_design',
1994,#36);
#38=CC_DESIGN_DATE_AND_TIME_ASSIGNMENT(#39,#43,(#1));
#39=DATE_AND_TIME(#40,#41);
#40=CALENDAR_DATE(0,1,1);
#41=LOCAL_TIME(0,0,0.,#42);
#42=COORDINATED_UNIVERSAL_TIME_OFFSET(0,0,.AHEAD.);
#43=DATE_TIME_ROLE('creation_date');
#44=CC_DESIGN_APPROVAL(#45,(#1));
#45=APPROVAL(#46,'UNSPECIFIED');
#46=APPROVAL_STATUS('not_yet_approved');
#47=APPROVAL_DATE_TIME(#48,#45);
#48=DATE_AND_TIME(#49,#50);
#49=CALENDAR_DATE(0,1,1);
#50=LOCAL_TIME(0,0,0.,#51);
#51=COORDINATED_UNIVERSAL_TIME_OFFSET(0,0,.AHEAD.);
#52=PERSON('UNSPECIFIED','ADMIN','UNSPECIFIED',('UNSPECIFIED'),('UNSPECIFIED'),(
'UNSPECIFIED'));
#53=ORGANIZATION('UNSPECIFIED','UNSPECIFIED','UNSPECIFIED');
#54=PERSON_AND_ORGANIZATION(#52,#53);
#55=PERSON_AND_ORGANIZATION_ROLE('creator');
#56=CC_DESIGN_PERSON_AND_ORGANIZATION_ASSIGNMENT(#54,#55,(#32,#1));
#57=ADVANCED_FACE('',(#72,#74),#76,.F.);
#58=ADVANCED_FACE('',(#81,#83),#85,.T.);
#59=ADVANCED_FACE('',(#90,#92),#94,.F.);
#60=ADVANCED_FACE('',(#99),#101,.T.);
#61=ADVANCED_FACE('',(#106),#108,.T.);
#62=ADVANCED_FACE('',(#113),#115,.T.);
#63=ADVANCED_FACE('',(#120),#122,.T.);
#64=ADVANCED_FACE('',(#127),#129,.T.);
#65=ADVANCED_FACE('',(#134),#136,.T.);
#66=ADVANCED_FACE('',(#141),#143,.T.);
#67=ADVANCED_FACE('',(#148),#150,.T.);
#68=ADVANCED_FACE('',(#155,#157),#159,.T.);
#69=ADVANCED_FACE('',(#164,#166),#168,.T.);
#70=CARTESIAN_POINT('',(0.,0.,6.5));
#71=CARTESIAN_POINT('',(0.,0.,3.));
#72=FACE_BOUND('',#73,.T.);
#73=EDGE_LOOP('',(#173,#174,#175,#176,#177,#178,#179,#180));
#74=FACE_BOUND('',#75,.T.);
#75=EDGE_LOOP('',(#181));
#76=PLANE('',#77);
#77=AXIS2_PLACEMENT_3D('',#78,#79,#80);
#78=CARTESIAN_POINT('',(0.,0.,0.));
#79=DIRECTION('',(0.,0.,1.));
#80=DIRECTION('',(-1.,1.22464679914735E-16,0.));
#81=FACE_BOUND('',#82,.T.);
#82=EDGE_LOOP('',(#182));
#83=FACE_BOUND('',#84,.T.);
#84=EDGE_LOOP('',(#183));
#85=PLANE('',#86);
#86=AXIS2_PLACEMENT_3D('',#87,#88,#89);
#87=CARTESIAN_POINT('',(0.,0.,6.5));
#88=DIRECTION('',(0.,0.,1.));
#89=DIRECTION('',(-1.,1.22464679914735E-16,0.));
#90=FACE_OUTER_BOUND('',#91,.T.);
#91=EDGE_LOOP('',(#184));
#92=FACE_OUTER_BOUND('',#93,.T.);
#93=EDGE_LOOP('',(#185));
#94=CYLINDRICAL_SURFACE('',#95,3.5);
#95=AXIS2_PLACEMENT_3D('',#96,#97,#98);
#96=CARTESIAN_POINT('',(0.,0.,0.));
#97=DIRECTION('',(0.,0.,1.));
#98=DIRECTION('',(0.,1.,0.));
#99=FACE_BOUND('',#100,.T.);
#100=EDGE_LOOP('',(#186,#187,#188,#189));
#101=PLANE('',#102);
#102=AXIS2_PLACEMENT_3D('',#103,#104,#105);
#103=CARTESIAN_POINT('',(-0.734999999999998,12.6754168485757,0.));
#104=DIRECTION('',(-1.,1.30614473485312E-16,0.));
#105=DIRECTION('',(-1.30614473485312E-16,-1.,0.));
#106=FACE_BOUND('',#107,.T.);
#107=EDGE_LOOP('',(#190,#191,#192,#193));
#108=PLANE('',#109);
#109=AXIS2_PLACEMENT_3D('',#110,#111,#112);
#110=CARTESIAN_POINT('',(0.735000000000002,12.6754168485757,0.));
#111=DIRECTION('',(0.,1.,0.));
#112=DIRECTION('',(-1.,0.,0.));
#113=FACE_BOUND('',#114,.T.);
#114=EDGE_LOOP('',(#194,#195,#196,#197));
#115=PLANE('',#116);
#116=AXIS2_PLACEMENT_3D('',#117,#118,#119);
#117=CARTESIAN_POINT('',(0.735000000000001,10.9754168485757,0.));
#118=DIRECTION('',(1.,-1.30614473485312E-16,0.));
#119=DIRECTION('',(1.30614473485312E-16,1.,0.));
#120=FACE_BOUND('',#121,.T.);
#121=EDGE_LOOP('',(#198,#199,#200,#201));
#122=CYLINDRICAL_SURFACE('',#123,11.);
#123=AXIS2_PLACEMENT_3D('',#124,#125,#126);
#124=CARTESIAN_POINT('',(0.,0.,0.));
#125=DIRECTION('',(0.,0.,1.));
#126=DIRECTION('',(0.0668181818181816,-0.997765168052339,0.));
#127=FACE_BOUND('',#128,.T.);
#128=EDGE_LOOP('',(#202,#203,#204,#205));
#129=PLANE('',#130);
#130=AXIS2_PLACEMENT_3D('',#131,#132,#133);
#131=CARTESIAN_POINT('',(0.734999999999998,-12.6754168485757,0.));
#132=DIRECTION('',(1.,-1.30614473485312E-16,0.));
#133=DIRECTION('',(1.30614473485312E-16,1.,0.));
#134=FACE_BOUND('',#135,.T.);
#135=EDGE_LOOP('',(#206,#207,#208,#209));
#136=PLANE('',#137);
#137=AXIS2_PLACEMENT_3D('',#138,#139,#140);
#138=CARTESIAN_POINT('',(-0.735000000000002,-12.6754168485757,0.));
#139=DIRECTION('',(0.,-1.,0.));
#140=DIRECTION('',(1.,0.,0.));
#141=FACE_BOUND('',#142,.T.);
#142=EDGE_LOOP('',(#210,#211,#212,#213));
#143=PLANE('',#144);
#144=AXIS2_PLACEMENT_3D('',#145,#146,#147);
#145=CARTESIAN_POINT('',(-0.735000000000001,-10.9754168485757,0.));
#146=DIRECTION('',(-1.,1.30614473485313E-16,0.));
#147=DIRECTION('',(-1.30614473485313E-16,-1.,0.));
#148=FACE_BOUND('',#149,.T.);
#149=EDGE_LOOP('',(#214,#215,#216,#217));
#150=CYLINDRICAL_SURFACE('',#151,11.);
#151=AXIS2_PLACEMENT_3D('',#152,#153,#154);
#152=CARTESIAN_POINT('',(0.,0.,0.));
#153=DIRECTION('',(0.,0.,1.));
#154=DIRECTION('',(-0.0668181818181817,0.997765168052339,0.));
#155=FACE_OUTER_BOUND('',#156,.T.);
#156=EDGE_LOOP('',(#218));
#157=FACE_OUTER_BOUND('',#158,.T.);
#158=EDGE_LOOP('',(#219));
#159=CYLINDRICAL_SURFACE('',#160,4.5);
#160=AXIS2_PLACEMENT_3D('',#161,#162,#163);
#161=CARTESIAN_POINT('',(0.,0.,3.));
#162=DIRECTION('',(0.,0.,1.));
#163=DIRECTION('',(-1.,1.22464679914735E-16,0.));
#164=FACE_BOUND('',#165,.T.);
#165=EDGE_LOOP('',(#220,#221,#222,#223,#224,#225,#226,#227));
#166=FACE_BOUND('',#167,.T.);
#167=EDGE_LOOP('',(#228));
#168=PLANE('',#169);
#169=AXIS2_PLACEMENT_3D('',#170,#171,#172);
#170=CARTESIAN_POINT('',(0.,0.,3.));
#171=DIRECTION('',(0.,0.,1.));
#172=DIRECTION('',(-1.,1.22464679914735E-16,0.));
#173=ORIENTED_EDGE('',*,*,#229,.F.);
#174=ORIENTED_EDGE('',*,*,#230,.F.);
#175=ORIENTED_EDGE('',*,*,#231,.F.);
#176=ORIENTED_EDGE('',*,*,#232,.F.);
#177=ORIENTED_EDGE('',*,*,#233,.F.);
#178=ORIENTED_EDGE('',*,*,#234,.F.);
#179=ORIENTED_EDGE('',*,*,#235,.F.);
#180=ORIENTED_EDGE('',*,*,#236,.F.);
#181=ORIENTED_EDGE('',*,*,#237,.T.);
#182=ORIENTED_EDGE('',*,*,#238,.T.);
#183=ORIENTED_EDGE('',*,*,#239,.T.);
#184=ORIENTED_EDGE('',*,*,#239,.F.);
#185=ORIENTED_EDGE('',*,*,#237,.F.);
#186=ORIENTED_EDGE('',*,*,#229,.T.);
#187=ORIENTED_EDGE('',*,*,#240,.T.);
#188=ORIENTED_EDGE('',*,*,#241,.F.);
#189=ORIENTED_EDGE('',*,*,#242,.F.);
#190=ORIENTED_EDGE('',*,*,#230,.T.);
#191=ORIENTED_EDGE('',*,*,#242,.T.);
#192=ORIENTED_EDGE('',*,*,#243,.F.);
#193=ORIENTED_EDGE('',*,*,#244,.F.);
#194=ORIENTED_EDGE('',*,*,#231,.T.);
#195=ORIENTED_EDGE('',*,*,#244,.T.);
#196=ORIENTED_EDGE('',*,*,#245,.F.);
#197=ORIENTED_EDGE('',*,*,#246,.F.);
#198=ORIENTED_EDGE('',*,*,#232,.T.);
#199=ORIENTED_EDGE('',*,*,#246,.T.);
#200=ORIENTED_EDGE('',*,*,#247,.F.);
#201=ORIENTED_EDGE('',*,*,#248,.F.);
#202=ORIENTED_EDGE('',*,*,#233,.T.);
#203=ORIENTED_EDGE('',*,*,#248,.T.);
#204=ORIENTED_EDGE('',*,*,#249,.F.);
#205=ORIENTED_EDGE('',*,*,#250,.F.);
#206=ORIENTED_EDGE('',*,*,#234,.T.);
#207=ORIENTED_EDGE('',*,*,#250,.T.);
#208=ORIENTED_EDGE('',*,*,#251,.F.);
#209=ORIENTED_EDGE('',*,*,#252,.F.);
#210=ORIENTED_EDGE('',*,*,#235,.T.);
#211=ORIENTED_EDGE('',*,*,#252,.T.);
#212=ORIENTED_EDGE('',*,*,#253,.F.);
#213=ORIENTED_EDGE('',*,*,#254,.F.);
#214=ORIENTED_EDGE('',*,*,#236,.T.);
#215=ORIENTED_EDGE('',*,*,#254,.T.);
#216=ORIENTED_EDGE('',*,*,#255,.F.);
#217=ORIENTED_EDGE('',*,*,#240,.F.);
#218=ORIENTED_EDGE('',*,*,#238,.F.);
#219=ORIENTED_EDGE('',*,*,#256,.T.);
#220=ORIENTED_EDGE('',*,*,#255,.T.);
#221=ORIENTED_EDGE('',*,*,#253,.T.);
#222=ORIENTED_EDGE('',*,*,#251,.T.);
#223=ORIENTED_EDGE('',*,*,#249,.T.);
#224=ORIENTED_EDGE('',*,*,#247,.T.);
#225=ORIENTED_EDGE('',*,*,#245,.T.);
#226=ORIENTED_EDGE('',*,*,#243,.T.);
#227=ORIENTED_EDGE('',*,*,#241,.T.);
#228=ORIENTED_EDGE('',*,*,#256,.F.);
#229=EDGE_CURVE('',#257,#258,#259,.T.);
#230=EDGE_CURVE('',#260,#257,#261,.T.);
#231=EDGE_CURVE('',#262,#260,#263,.T.);
#232=EDGE_CURVE('',#264,#262,#265,.T.);
#233=EDGE_CURVE('',#266,#264,#267,.T.);
#234=EDGE_CURVE('',#268,#266,#269,.T.);
#235=EDGE_CURVE('',#270,#268,#271,.T.);
#236=EDGE_CURVE('',#258,#270,#272,.T.);
#237=EDGE_CURVE('',#273,#273,#274,.T.);
#238=EDGE_CURVE('',#275,#275,#276,.T.);
#239=EDGE_CURVE('',#277,#277,#278,.F.);
#240=EDGE_CURVE('',#258,#279,#280,.T.);
#241=EDGE_CURVE('',#281,#279,#282,.T.);
#242=EDGE_CURVE('',#257,#281,#283,.T.);
#243=EDGE_CURVE('',#284,#281,#285,.T.);
#244=EDGE_CURVE('',#260,#284,#286,.T.);
#245=EDGE_CURVE('',#287,#284,#288,.T.);
#246=EDGE_CURVE('',#262,#287,#289,.T.);
#247=EDGE_CURVE('',#290,#287,#291,.T.);
#248=EDGE_CURVE('',#264,#290,#292,.T.);
#249=EDGE_CURVE('',#293,#290,#294,.T.);
#250=EDGE_CURVE('',#266,#293,#295,.T.);
#251=EDGE_CURVE('',#296,#293,#297,.T.);
#252=EDGE_CURVE('',#268,#296,#298,.T.);
#253=EDGE_CURVE('',#299,#296,#300,.T.);
#254=EDGE_CURVE('',#270,#299,#301,.T.);
#255=EDGE_CURVE('',#279,#299,#302,.T.);
#256=EDGE_CURVE('',#303,#303,#304,.T.);
#257=VERTEX_POINT('',#305);
#258=VERTEX_POINT('',#306);
#259=LINE('',#307,#308);
#260=VERTEX_POINT('',#310);
#261=LINE('',#311,#312);
#262=VERTEX_POINT('',#314);
#263=LINE('',#315,#316);
#264=VERTEX_POINT('',#318);
#265=CIRCLE('',#319,11.);
#266=VERTEX_POINT('',#323);
#267=LINE('',#324,#325);
#268=VERTEX_POINT('',#327);
#269=LINE('',#328,#329);
#270=VERTEX_POINT('',#331);
#271=LINE('',#332,#333);
#272=CIRCLE('',#335,11.);
#273=VERTEX_POINT('',#339);
#274=CIRCLE('',#340,3.5);
#275=VERTEX_POINT('',#344);
#276=CIRCLE('',#345,4.5);
#277=VERTEX_POINT('',#349);
#278=CIRCLE('',#350,3.5);
#279=VERTEX_POINT('',#354);
#280=LINE('',#355,#356);
#281=VERTEX_POINT('',#358);
#282=LINE('',#359,#360);
#283=LINE('',#362,#363);
#284=VERTEX_POINT('',#365);
#285=LINE('',#366,#367);
#286=LINE('',#369,#370);
#287=VERTEX_POINT('',#372);
#288=LINE('',#373,#374);
#289=LINE('',#376,#377);
#290=VERTEX_POINT('',#379);
#291=CIRCLE('',#380,11.);
#292=LINE('',#384,#385);
#293=VERTEX_POINT('',#387);
#294=LINE('',#388,#389);
#295=LINE('',#391,#392);
#296=VERTEX_POINT('',#394);
#297=LINE('',#395,#396);
#298=LINE('',#398,#399);
#299=VERTEX_POINT('',#401);
#300=LINE('',#402,#403);
#301=LINE('',#405,#406);
#302=CIRCLE('',#408,11.);
#303=VERTEX_POINT('',#412);
#304=CIRCLE('',#413,4.5);
#305=CARTESIAN_POINT('',(-0.734999999999998,12.6754168485757,0.));
#306=CARTESIAN_POINT('',(-0.734999999999999,10.9754168485757,0.));
#307=CARTESIAN_POINT('',(-0.734999999999998,12.6754168485757,0.));
#308=VECTOR('',#309,1.);
#309=DIRECTION('',(-1.30614473485312E-16,-1.,0.));
#310=CARTESIAN_POINT('',(0.735000000000002,12.6754168485757,0.));
#311=CARTESIAN_POINT('',(0.735000000000002,12.6754168485757,0.));
#312=VECTOR('',#313,1.);
#313=DIRECTION('',(-1.,0.,0.));
#314=CARTESIAN_POINT('',(0.735000000000003,10.9754168485757,0.));
#315=CARTESIAN_POINT('',(0.735000000000001,10.9754168485757,0.));
#316=VECTOR('',#317,1.);
#317=DIRECTION('',(1.30614473485312E-16,1.,0.));
#318=CARTESIAN_POINT('',(0.734999999999998,-10.9754168485757,0.));
#319=AXIS2_PLACEMENT_3D('',#320,#321,#322);
#320=CARTESIAN_POINT('',(0.,0.,0.));
#321=DIRECTION('',(0.,0.,1.));
#322=DIRECTION('',(0.0668181818181816,-0.997765168052339,0.));
#323=CARTESIAN_POINT('',(0.734999999999998,-12.6754168485757,0.));
#324=CARTESIAN_POINT('',(0.734999999999998,-12.6754168485757,0.));
#325=VECTOR('',#326,1.);
#326=DIRECTION('',(1.30614473485312E-16,1.,0.));
#327=CARTESIAN_POINT('',(-0.735000000000002,-12.6754168485757,0.));
#328=CARTESIAN_POINT('',(-0.735000000000002,-12.6754168485757,0.));
#329=VECTOR('',#330,1.);
#330=DIRECTION('',(1.,0.,0.));
#331=CARTESIAN_POINT('',(-0.735000000000003,-10.9754168485757,0.));
#332=CARTESIAN_POINT('',(-0.735000000000001,-10.9754168485757,0.));
#333=VECTOR('',#334,1.);
#334=DIRECTION('',(-1.30614473485313E-16,-1.,0.));
#335=AXIS2_PLACEMENT_3D('',#336,#337,#338);
#336=CARTESIAN_POINT('',(0.,0.,0.));
#337=DIRECTION('',(0.,0.,1.));
#338=DIRECTION('',(-0.0668181818181817,0.997765168052339,0.));
#339=CARTESIAN_POINT('',(0.,3.5,0.));
#340=AXIS2_PLACEMENT_3D('',#341,#342,#343);
#341=CARTESIAN_POINT('',(0.,0.,0.));
#342=DIRECTION('',(0.,0.,1.));
#343=DIRECTION('',(0.,1.,0.));
#344=CARTESIAN_POINT('',(-4.5,1.10218211923262E-15,6.5));
#345=AXIS2_PLACEMENT_3D('',#346,#347,#348);
#346=CARTESIAN_POINT('',(0.,0.,6.5));
#347=DIRECTION('',(0.,0.,1.));
#348=DIRECTION('',(-1.,1.22464679914735E-16,0.));
#349=CARTESIAN_POINT('',(4.28626379701574E-16,3.5,6.5));
#350=AXIS2_PLACEMENT_3D('',#351,#352,#353);
#351=CARTESIAN_POINT('',(0.,0.,6.5));
#352=DIRECTION('',(0.,0.,1.));
#353=DIRECTION('',(0.,1.,0.));
#354=CARTESIAN_POINT('',(-0.734999999999999,10.9754168485757,3.));
#355=CARTESIAN_POINT('',(-0.734999999999999,10.9754168485757,0.));
#356=VECTOR('',#357,1.);
#357=DIRECTION('',(0.,0.,1.));
#358=CARTESIAN_POINT('',(-0.734999999999998,12.6754168485757,3.));
#359=CARTESIAN_POINT('',(-0.734999999999998,12.6754168485757,3.));
#360=VECTOR('',#361,1.);
#361=DIRECTION('',(-1.30614473485312E-16,-1.,0.));
#362=CARTESIAN_POINT('',(-0.734999999999998,12.6754168485757,0.));
#363=VECTOR('',#364,1.);
#364=DIRECTION('',(0.,0.,1.));
#365=CARTESIAN_POINT('',(0.735000000000002,12.6754168485757,3.));
#366=CARTESIAN_POINT('',(0.735000000000002,12.6754168485757,3.));
#367=VECTOR('',#368,1.);
#368=DIRECTION('',(-1.,0.,0.));
#369=CARTESIAN_POINT('',(0.735000000000002,12.6754168485757,0.));
#370=VECTOR('',#371,1.);
#371=DIRECTION('',(0.,0.,1.));
#372=CARTESIAN_POINT('',(0.735000000000003,10.9754168485757,3.));
#373=CARTESIAN_POINT('',(0.735000000000001,10.9754168485757,3.));
#374=VECTOR('',#375,1.);
#375=DIRECTION('',(1.30614473485312E-16,1.,0.));
#376=CARTESIAN_POINT('',(0.735000000000005,10.9754168485757,0.));
#377=VECTOR('',#378,1.);
#378=DIRECTION('',(0.,0.,1.));
#379=CARTESIAN_POINT('',(0.734999999999998,-10.9754168485757,3.));
#380=AXIS2_PLACEMENT_3D('',#381,#382,#383);
#381=CARTESIAN_POINT('',(0.,0.,3.));
#382=DIRECTION('',(0.,0.,1.));
#383=DIRECTION('',(0.0668181818181816,-0.997765168052339,0.));
#384=CARTESIAN_POINT('',(0.734999999999998,-10.9754168485757,0.));
#385=VECTOR('',#386,1.);
#386=DIRECTION('',(0.,0.,1.));
#387=CARTESIAN_POINT('',(0.734999999999998,-12.6754168485757,3.));
#388=CARTESIAN_POINT('',(0.734999999999998,-12.6754168485757,3.));
#389=VECTOR('',#390,1.);
#390=DIRECTION('',(1.30614473485312E-16,1.,0.));
#391=CARTESIAN_POINT('',(0.734999999999998,-12.6754168485757,0.));
#392=VECTOR('',#393,1.);
#393=DIRECTION('',(0.,0.,1.));
#394=CARTESIAN_POINT('',(-0.735000000000002,-12.6754168485757,3.));
#395=CARTESIAN_POINT('',(-0.735000000000002,-12.6754168485757,3.));
#396=VECTOR('',#397,1.);
#397=DIRECTION('',(1.,0.,0.));
#398=CARTESIAN_POINT('',(-0.735000000000002,-12.6754168485757,0.));
#399=VECTOR('',#400,1.);
#400=DIRECTION('',(0.,0.,1.));
#401=CARTESIAN_POINT('',(-0.735000000000003,-10.9754168485757,3.));
#402=CARTESIAN_POINT('',(-0.735000000000001,-10.9754168485757,3.));
#403=VECTOR('',#404,1.);
#404=DIRECTION('',(-1.30614473485313E-16,-1.,0.));
#405=CARTESIAN_POINT('',(-0.735000000000004,-10.9754168485757,0.));
#406=VECTOR('',#407,1.);
#407=DIRECTION('',(0.,0.,1.));
#408=AXIS2_PLACEMENT_3D('',#409,#410,#411);
#409=CARTESIAN_POINT('',(0.,0.,3.));
#410=DIRECTION('',(0.,0.,1.));
#411=DIRECTION('',(-0.0668181818181817,0.997765168052339,0.));
#412=CARTESIAN_POINT('',(-4.5,1.10218211923262E-15,3.));
#413=AXIS2_PLACEMENT_3D('',#414,#415,#416);
#414=CARTESIAN_POINT('',(0.,0.,3.));
#415=DIRECTION('',(0.,0.,1.));
#416=DIRECTION('',(-1.,1.22464679914735E-16,0.));
ENDSEC;
END-ISO-10303-21;
